<svg id="Capa_1" data-name="Capa 1" xmlns="http://www.w3.org/2000/svg" xmlns:xlink="http://www.w3.org/1999/xlink" viewBox="0 0 512 512"><defs><style>.cls-1{fill:url(#Dégradé_sans_nom_157);}.cls-2{fill:url(#Dégradé_sans_nom_157-2);}</style><linearGradient id="Dégradé_sans_nom_157" x1="48.68" y1="9.63" x2="450.42" y2="436.12" gradientUnits="userSpaceOnUse"><stop offset="0" stop-color="#044e6e"/><stop offset="0.18" stop-color="#0f597a"/><stop offset="0.49" stop-color="#2e7799"/><stop offset="0.91" stop-color="#5ea7cc"/><stop offset="1" stop-color="#6ab2d8"/></linearGradient><linearGradient id="Dégradé_sans_nom_157-2" x1="29.65" y1="27.55" x2="431.38" y2="454.05" xlink:href="#Dégradé_sans_nom_157"/></defs><title>Plan de travail 1</title><path class="cls-1" d="M424.29,281.87V65.57a35,35,0,0,0-10-24.75,34,34,0,0,0-24.75-10.29H371.9V10A10,10,0,0,0,369,2.89,9.45,9.45,0,0,0,361.94,0H313.73a10.51,10.51,0,0,0-10.28,10V30.53h-152V10a10,10,0,0,0-10-10H93.25a10,10,0,0,0-10,10V30.53h-18a35.18,35.18,0,0,0-35.35,35V332.65A35.25,35.25,0,0,0,65.29,368h82.36V348.07H65.93v.33A15.92,15.92,0,0,1,50.18,333V119.24H404.36V272.55a111.6,111.6,0,0,0-24.74-6.43H348.76a118.34,118.34,0,0,0-97.38,81.95H182.81V368h63.75a124.86,124.86,0,0,0-1,15.43,117.55,117.55,0,0,0,38.92,87.35A76.2,76.2,0,0,1,174,402.7l-.22-61.79c19.95-2.68,39.46-14.36,56.79-34.23a13.08,13.08,0,0,0,2.9-10.31c22.7-29.95,36.7-70.78,36.7-102.12,0-48.45-21.69-53.45-57.59-61.65l-.07-.06a13,13,0,0,0-12-7.84,13.68,13.68,0,1,0,0,27.35,13,13,0,0,0,8.05-3.05l.29.14c34.81,8,44.24,10.16,44.24,45,0,27.57-13.05,64.55-33,91.24a13.16,13.16,0,0,0-9,4.35c-10.23,11.83-26.47,25.9-45.76,25.9s-35.55-14-45.7-25.75a13.06,13.06,0,0,0-9-4.35c-20-26.76-33.08-63.76-33.08-91.39,0-34.81,9.22-37,44.32-45l.14-.14a13.58,13.58,0,1,0,8.2-24.3A13.93,13.93,0,0,0,118,132.32c-18,4.16-32.41,7.48-42.32,15.82s-15.34,21.71-15.34,46c0,31.4,14.14,72.39,37,102.34a13,13,0,0,0,2.91,10.3c17.33,19.8,36.62,31.4,56.57,34.09v61.8a93.6,93.6,0,0,0,93.49,93.41,92.64,92.64,0,0,0,47.12-12.81l-5-5.92A118.08,118.08,0,1,0,424.29,281.87ZM323.69,19.61H352.3v37.6H323.69Zm-220.15,0h28.6v37.6h-28.6Zm-53,80V65.57A15.23,15.23,0,0,1,65.93,50.14h18V66.53a10.28,10.28,0,0,0,10,10.28H142.1a10.29,10.29,0,0,0,10-10.28V50.14h152V66.53a10.57,10.57,0,0,0,10.28,10.28h48.21c5.47,0,9.64-4.82,9.64-10.28V50.14H389.9a14.07,14.07,0,0,1,10.61,4.5,13.84,13.84,0,0,1,4.18,10.93V99.63ZM364.19,481.46a98.35,98.35,0,0,1-98.35-98.35c0-54.32,44.35-98.35,98.35-98.35s98.35,44,98.35,98.35A98.35,98.35,0,0,1,364.19,481.46Z"/><path class="cls-2" d="M364.58,299.54A83.57,83.57,0,1,0,448.27,383C448.27,336.79,410.55,299.54,364.58,299.54Z"/></svg>